<svg id="Ukraine" xmlns="http://www.w3.org/2000/svg" viewBox="0 0 505.9 75"><path d="M34.8,61c7.8,0,13.1-4,15.6-12.5l15.7,4.4C61.7,66.7,52.1,75,34.8,75,12.8,75,0,59.2,0,37.5S12.3,0,34.3,0C50.6,0,62.5,7.8,66.1,22.2L50.4,26.6C48.3,17.6,42.1,14,34.3,14c-11,0-17.8,8.8-17.8,23.5S23.8,61,34.8,61Z"/><path d="M97.1,73.5V1.5h52.7V16H113.1V29.5h31.7V44H113.1V59h37.7V73.5Z"/><path d="M183.8,73.5V1.5h16V59h37.8V73.5Z"/><path d="M267.6,73.5V1.5h16V59h37.8V73.5Z"/><path d="M388.4,1.5l28,72H399.9l-4.8-13H366.4l-4.7,13H345.4L374,1.5ZM371.3,47.3h19l-9.5-25.9Z"/><path d="M444.4,1.5h28.3c15.6,0,27.4,6,27.4,21.7,0,11-7.2,18-17.7,19.4,7.3,1,13.1,7.7,16,14.2l7.5,16.7H487l-5.2-12.1c-4.5-10.4-9-12.9-17.1-12.9h-4.3v25h-16Zm16,33.5h7c10.3,0,16.4-2.7,16.4-9.6,0-8.4-7.1-9.4-16.6-9.4h-6.8Z"/></svg>