<?xml version="1.0" encoding="UTF-8"?><svg xmlns="http://www.w3.org/2000/svg" viewBox="0 0 602.63 137"><g id="a"><g><path d="M28.91,50.68c6.48,0,10.88-3.32,12.96-10.38l13.04,3.66c-3.66,11.47-11.63,18.36-26.01,18.36C10.64,62.32,0,49.19,0,31.16S10.22,0,28.5,0c13.54,0,23.43,6.48,26.42,18.45l-13.04,3.66c-1.74-7.48-6.9-10.47-13.38-10.47-9.14,0-14.79,7.31-14.79,19.53s6.07,19.52,15.21,19.52Z"/><path d="M119.03,61.07V1.25h43.79V13.29h-30.49v11.22h26.34v12.05h-26.34v12.46h31.32v12.05h-44.62Z"/><path d="M225.73,61.07V1.25h13.29V49.02h27.95v12.05h-41.24Z"/><path d="M330.17,61.07V1.25h13.29V49.02h27.95v12.05h-41.24Z"/><path d="M468.79,1.2l23.26,59.82h-13.71l-3.99-10.8h-23.85l-3.91,10.8h-13.54L456.83,1.2h11.96Zm-14.21,38.05h15.79l-7.89-21.52-7.89,21.52Z"/><path d="M551.53,1.25h23.51c12.96,0,22.77,4.99,22.77,18.03,0,9.14-5.98,14.96-14.71,16.12,6.07,.83,10.89,6.4,13.29,11.8l6.23,13.87h-15.7l-4.32-10.05c-3.74-8.64-7.48-10.72-14.21-10.72h-3.57v20.77h-13.29V1.25Zm13.29,27.84h5.82c8.56,0,13.63-2.24,13.63-7.98,0-6.98-5.9-7.81-13.79-7.81h-5.65v15.79Z"/><rect x="84.76" y="1.25" width="3.81" height="135.75"/><rect x="192.22" y="1.25" width="3.81" height="135.75"/><rect x="296.66" y="1.25" width="3.81" height="135.75"/><rect x="401.11" y="1.25" width="3.81" height="135.75"/><rect x="518.03" y="1.25" width="3.81" height="135.75"/></g></g><g id="b"/></svg>